<svg t="1598953840851" class="icon" viewBox="0 0 1024 1024" version="1.1" xmlns="http://www.w3.org/2000/svg" p-id="2924" width="200" height="200"><path d="M592 201.6h-160l-51.2-128c-6.4-19.2 6.4-41.6 32-41.6h201.6c22.4 0 38.4 22.4 28.8 44.8l-51.2 124.8z" fill="" p-id="2925"></path><path d="M588.8 220.8h-150.4c-160 80-281.6 393.6-281.6 556.8 0 188.8 160 217.6 355.2 217.6s355.2-28.8 355.2-217.6c0-163.2-118.4-476.8-278.4-556.8z m16 432c16 0 32 12.8 32 32s-12.8 32-32 32H544v73.6c0 16-12.8 32-32 32s-32-12.8-32-32v-73.6h-60.8c-16 0-32-12.8-32-32s12.8-32 32-32H480V608h-60.8c-16 0-32-12.8-32-32 0-16 12.8-32 32-32h54.4l-38.4-38.4c-12.8-12.8-12.8-32 0-44.8 12.8-12.8 32-12.8 44.8 0l32 32 32-32c12.8-12.8 32-12.8 44.8 0 12.8 12.8 12.8 32 0 44.8L547.2 544h54.4c16 0 32 12.8 32 32 0 16-12.8 32-32 32H544v44.8h60.8z" fill="" p-id="2926"></path></svg>