<?xml version="1.0" standalone="no"?><!DOCTYPE svg PUBLIC "-//W3C//DTD SVG 1.1//EN" "http://www.w3.org/Graphics/SVG/1.1/DTD/svg11.dtd"><svg t="1601859103358" class="icon" viewBox="0 0 1024 1024" version="1.1" xmlns="http://www.w3.org/2000/svg" p-id="2584" xmlns:xlink="http://www.w3.org/1999/xlink" width="200" height="200"><defs><style type="text/css"></style></defs><path d="M720.213 484.124H539.876V303.787c0-15.133-12.288-27.307-27.307-27.307s-27.307 12.174-27.307 27.307v180.337H319.716c-15.133 0-27.307 12.175-27.307 27.307s12.288 27.307 27.307 27.307h165.546v165.546c0 15.133 12.288 27.307 27.307 27.307s27.307-12.174 27.307-27.307V538.738h180.337c15.133 0 27.307-12.174 27.307-27.307s-12.174-27.307-27.307-27.307z" p-id="2585"></path><path d="M512 75.093C271.132 75.093 75.093 271.133 75.093 512S271.133 948.907 512 948.907 948.907 752.867 948.907 512 752.867 75.093 512 75.093z m0 819.2c-210.83 0-382.293-171.463-382.293-382.293S301.17 129.707 512 129.707 894.293 301.17 894.293 512 722.83 894.293 512 894.293z" p-id="2586"></path></svg>